<?xml version="1.0" standalone="no"?>
<!DOCTYPE svg PUBLIC "-//W3C//DTD SVG 20010904//EN"
 "http://www.w3.org/TR/2001/REC-SVG-20010904/DTD/svg10.dtd">
<svg version="1.0" xmlns="http://www.w3.org/2000/svg"
 width="1280.000000pt" height="1280.000000pt" viewBox="0 0 1280.000000 1280.000000"
 preserveAspectRatio="xMidYMid meet">
<metadata>
Created by potrace 1.14, written by Peter Selinger 2001-2017
</metadata>
<g transform="translate(0.000000,1280.000000) scale(0.100000,-0.100000)"
fill="#000000" stroke="none">
<path d="M1122 10733 l3 -2068 1635 -1 c1474 0 1636 1 1641 15 4 9 2 24 -3 34
-5 9 -5 17 -1 17 9 0 9 197 1 206 -3 3 -2 19 2 37 4 18 4 41 0 52 -4 11 -5 24
-2 29 7 13 5 112 -3 125 -3 6 -3 11 2 11 8 0 9 117 1 125 -2 3 -3 18 0 34 3
23 10 30 33 33 17 3 33 0 37 -6 11 -18 8 -5976 -3 -5977 -5 0 -20 -2 -32 -3
-13 -2 -23 2 -23 8 0 7 -3 7 -8 1 -9 -12 -72 -14 -72 -2 0 4 -5 5 -12 1 -15
-10 -141 -10 -156 0 -7 4 -12 4 -12 -1 0 -4 -83 -7 -185 -7 l-185 2 0 -94 c-1
-52 -1 -812 -1 -1689 0 -877 0 -1599 1 -1605 0 -12 5269 -14 5271 -2 0 4 1
768 2 1698 l2 1690 -83 0 c-48 -1 -82 3 -82 9 0 7 -3 7 -8 0 -9 -12 -72 -14
-72 -2 0 4 -5 5 -12 1 -15 -10 -141 -10 -156 0 -7 4 -12 4 -12 -1 0 -4 -29 -8
-65 -8 -36 0 -65 4 -65 8 0 5 -5 5 -12 1 -6 -4 -42 -8 -80 -8 -61 -1 -68 1
-69 19 -1 11 -2 1358 -3 2992 l-1 2973 31 0 c23 0 33 -5 37 -20 3 -11 2 -20
-1 -20 -6 0 -8 -111 -2 -135 1 -5 1 -12 0 -15 -6 -17 -5 -52 2 -56 4 -3 6 -10
2 -15 -10 -17 -12 -59 -2 -65 4 -3 5 -10 1 -16 -9 -16 -10 -79 -1 -106 4 -13
5 -21 0 -19 -4 3 -7 -10 -7 -29 0 -19 4 -34 8 -34 5 0 5 -5 1 -12 -10 -16 -11
-89 -2 -110 5 -9 4 -19 -1 -22 -5 -3 -7 -14 -4 -24 4 -17 73 -18 1649 -18
l1644 0 0 2068 0 2068 -5285 0 -5285 0 2 -2067z"/>
</g>
</svg>
